<svg width="20" height="20" viewBox="0 0 20 20" fill="none" xmlns="http://www.w3.org/2000/svg">
<path fill-rule="evenodd" clip-rule="evenodd" d="M9.29289 5.29289C8.90237 5.68342 8.90237 6.31658 9.29289 6.70711L11.5858 9H6C5.44771 9 5 9.44772 5 10C5 10.5523 5.44771 11 6 11H11.5858L9.29289 13.2929C8.90237 13.6834 8.90237 14.3166 9.29289 14.7071C9.68342 15.0976 10.3166 15.0976 10.7071 14.7071L14.7071 10.7071C15.0976 10.3166 15.0976 9.68342 14.7071 9.29289L10.7071 5.29289C10.3166 4.90237 9.68342 4.90237 9.29289 5.29289Z" fill="white"/>
<path fill-rule="evenodd" clip-rule="evenodd" d="M0 10C0 4.47715 4.47715 0 10 0C15.5228 0 20 4.47715 20 10C20 15.5228 15.5228 20 10 20C4.47715 20 0 15.5228 0 10ZM10 2C5.58172 2 2 5.58172 2 10C2 14.4183 5.58172 18 10 18C14.4183 18 18 14.4183 18 10C18 5.58172 14.4183 2 10 2Z" fill="white"/>
</svg>
